<svg width="1102" height="340" viewBox="0 0 1102 340" fill="none" xmlns="http://www.w3.org/2000/svg">
<path d="M316.649 214.576V124.671C316.649 96.1949 301.374 69.8562 276.587 55.6285L198.386 10.6861C173.601 -3.56202 143.069 -3.56202 118.283 10.6861L40.0618 55.6285C15.2762 69.8766 0 96.1949 0 124.671V214.576C0 243.052 15.2762 269.39 40.0618 283.619L118.283 328.56C143.069 342.81 173.601 342.81 198.386 328.56L276.607 283.619C301.394 269.37 316.669 243.052 316.669 214.576H316.649Z" fill="#D9232E"/>
<path d="M213.131 185.917L132.312 139.468C126.136 135.927 121.903 129.82 120.758 122.818L115.891 93.0807C112.68 73.4182 133.846 58.8648 151.167 68.8183L233.908 116.366C240.513 120.152 244.869 126.869 245.647 134.42L248.591 163.039C250.554 182.212 229.879 195.524 213.131 185.897V185.917Z" fill="white"/>
<path d="M165.503 270.429L84.6842 223.98C78.5081 220.438 74.2749 214.332 73.1299 207.33L68.2625 177.592C65.0519 157.93 86.218 143.376 103.539 153.33L186.28 200.877C192.885 204.663 197.241 211.38 198.019 218.932L200.963 247.55C202.927 266.724 182.251 280.036 165.503 270.408V270.429Z" fill="white"/>
<path d="M432.26 195.62C432.26 183.3 434.68 172.373 439.52 162.84C444.507 153.307 451.18 145.973 459.54 140.84C468.047 135.707 477.507 133.14 487.92 133.14C497.013 133.14 504.933 134.973 511.68 138.64C518.573 142.307 524.073 146.927 528.18 152.5V135.12H559.2V257H528.18V239.18C524.22 244.9 518.72 249.667 511.68 253.48C504.787 257.147 496.793 258.98 487.7 258.98C477.433 258.98 468.047 256.34 459.54 251.06C451.18 245.78 444.507 238.373 439.52 228.84C434.68 219.16 432.26 208.087 432.26 195.62ZM528.18 196.06C528.18 188.58 526.713 182.2 523.78 176.92C520.847 171.493 516.887 167.387 511.9 164.6C506.913 161.667 501.56 160.2 495.84 160.2C490.12 160.2 484.84 161.593 480 164.38C475.16 167.167 471.2 171.273 468.12 176.7C465.187 181.98 463.72 188.287 463.72 195.62C463.72 202.953 465.187 209.407 468.12 214.98C471.2 220.407 475.16 224.587 480 227.52C484.987 230.453 490.267 231.92 495.84 231.92C501.56 231.92 506.913 230.527 511.9 227.74C516.887 224.807 520.847 220.7 523.78 215.42C526.713 209.993 528.18 203.54 528.18 196.06ZM656.822 133.36C671.342 133.36 683.075 137.98 692.022 147.22C700.968 156.313 705.442 169.073 705.442 185.5V257H674.642V189.68C674.642 180 672.222 172.593 667.382 167.46C662.542 162.18 655.942 159.54 647.582 159.54C639.075 159.54 632.328 162.18 627.342 167.46C622.502 172.593 620.082 180 620.082 189.68V257H589.282V135.12H620.082V150.3C624.188 145.02 629.395 140.913 635.702 137.98C642.155 134.9 649.195 133.36 656.822 133.36ZM750.351 120.6C744.924 120.6 740.377 118.913 736.711 115.54C733.191 112.02 731.431 107.693 731.431 102.56C731.431 97.4267 733.191 93.1733 736.711 89.8C740.377 86.28 744.924 84.52 750.351 84.52C755.777 84.52 760.251 86.28 763.771 89.8C767.437 93.1733 769.271 97.4267 769.271 102.56C769.271 107.693 767.437 112.02 763.771 115.54C760.251 118.913 755.777 120.6 750.351 120.6ZM765.531 135.12V257H734.731V135.12H765.531ZM851.841 160.42H830.501V257H799.261V160.42H785.401V135.12H799.261V128.96C799.261 114 803.515 103 812.021 95.96C820.528 88.92 833.361 85.62 850.521 86.06V112.02C843.041 111.873 837.835 113.12 834.901 115.76C831.968 118.4 830.501 123.167 830.501 130.06V135.12H851.841V160.42ZM902.601 94.2V257H871.801V94.2H902.601ZM948.652 120.6C943.225 120.6 938.678 118.913 935.012 115.54C931.492 112.02 929.732 107.693 929.732 102.56C929.732 97.4267 931.492 93.1733 935.012 89.8C938.678 86.28 943.225 84.52 948.652 84.52C954.078 84.52 958.552 86.28 962.072 89.8C965.738 93.1733 967.572 97.4267 967.572 102.56C967.572 107.693 965.738 112.02 962.072 115.54C958.552 118.913 954.078 120.6 948.652 120.6ZM963.832 135.12V257H933.032V135.12H963.832ZM1061.58 257L1036.5 219.16L1014.28 257H981.282L1021.1 195.84L980.842 135.12H1015.6L1040.46 172.74L1062.9 135.12H1095.9L1055.86 195.84L1096.34 257H1061.58Z" fill="white"/>
</svg>
