<svg width="1102" height="340" viewBox="0 0 1102 340" fill="none" xmlns="http://www.w3.org/2000/svg">
    <path d="M316.649 214.576V124.671C316.649 96.1949 301.374 69.8562 276.587 55.6285L198.386 10.6861C173.601 -3.56202 143.069 -3.56202 118.283 10.6861L40.0618 55.6285C15.2762 69.8766 0 96.1949 0 124.671V214.576C0 243.052 15.2762 269.39 40.0618 283.619L118.283 328.56C143.069 342.81 173.601 342.81 198.386 328.56L276.607 283.619C301.394 269.37 316.669 243.052 316.669 214.576H316.649Z" fill="#06C149" />
    <path d="M213.131 185.917L132.312 139.468C126.136 135.927 121.903 129.82 120.758 122.818L115.891 93.0807C112.68 73.4182 133.846 58.8648 151.167 68.8183L233.908 116.366C240.513 120.152 244.869 126.869 245.647 134.42L248.591 163.039C250.554 182.212 229.879 195.524 213.131 185.897V185.917Z" fill="white" />
    <path d="M165.503 270.429L84.6842 223.98C78.5081 220.438 74.2749 214.332 73.1299 207.33L68.2625 177.592C65.0519 157.93 86.218 143.376 103.539 153.33L186.28 200.877C192.885 204.663 197.241 211.38 198.019 218.932L200.963 247.55C202.927 266.724 182.251 280.036 165.503 270.408V270.429Z" fill="white" />
</svg>
